HIERARCHY
ROOT Hips
{
  OFFSET -125.086 92.215 135.881
  CHANNELS 6 Xposition Yposition Zposition Zrotation Xrotation Yrotation
  JOINT LeftUpLeg
  {
    OFFSET 8.64259 1.95398 -2.38835
    CHANNELS 3 Zrotation Xrotation Yrotation
    JOINT LeftLeg
    {
      OFFSET 43.7702 0 0
      CHANNELS 3 Zrotation Xrotation Yrotation
      JOINT LeftFoot
      {
        OFFSET 40.6238 0 0
        CHANNELS 3 Zrotation Xrotation Yrotation
        JOINT LeftToeBase
        {
          OFFSET 12.7242 0 0
          CHANNELS 3 Zrotation Xrotation Yrotation
          End Site
          {
            OFFSET 0 0 0
          }
        }
      }
    }
  }
  JOINT RightUpLeg
  {
    OFFSET -8.2249 1.95398 -2.59336
    CHANNELS 3 Zrotation Xrotation Yrotation
    JOINT RightLeg
    {
      OFFSET 43.5653 0 0
      CHANNELS 3 Zrotation Xrotation Yrotation
      JOINT RightFoot
      {
        OFFSET 40.6238 0 0
        CHANNELS 3 Zrotation Xrotation Yrotation
        JOINT RightToeBase
        {
          OFFSET 12.7242 0 0
          CHANNELS 3 Zrotation Xrotation Yrotation
          End Site
          {
            OFFSET 0 0 0
          }
        }
      }
    }
  }
  JOINT Spine
  {
    OFFSET 0.165834 0.87714 6.61349
    CHANNELS 3 Zrotation Xrotation Yrotation
    JOINT Spine1
    {
      OFFSET 7.38963 1.71661e-005 0
      CHANNELS 3 Zrotation Xrotation Yrotation
      JOINT Spine2
      {
        OFFSET 11.9445 1.14441e-005 0
        CHANNELS 3 Zrotation Xrotation Yrotation
        JOINT Spine3
        {
          OFFSET 14.7254 4.19617e-005 0
          CHANNELS 3 Zrotation Xrotation Yrotation
          JOINT Spine4
          {
            OFFSET 10.9679 0 0
            CHANNELS 3 Zrotation Xrotation Yrotation
            JOINT RightShoulder
            {
              OFFSET 2.46616 -1.6653 3.69651
              CHANNELS 3 Zrotation Xrotation Yrotation
              JOINT RightArm
              {
                OFFSET 13.0012 0 0
                CHANNELS 3 Zrotation Xrotation Yrotation
                JOINT RightForeArm
                {
                  OFFSET 28.7848 1.52588e-005 0
                  CHANNELS 3 Zrotation Xrotation Yrotation
                  JOINT RightHand
                  {
                    OFFSET 26.5688 1.52588e-005 0
                    CHANNELS 3 Zrotation Xrotation Yrotation
                    End Site
                    {
                      OFFSET 0 0 0
                    }
                  }
                }
              }
            }
            JOINT LeftShoulder
            {
              OFFSET 2.38034 -1.29275 -3.7523
              CHANNELS 3 Zrotation Xrotation Yrotation
              JOINT LeftArm
              {
                OFFSET 16.3182 6.10352e-005 0
                CHANNELS 3 Zrotation Xrotation Yrotation
                JOINT LeftForeArm
                {
                  OFFSET 27.0901 0 0
                  CHANNELS 3 Zrotation Xrotation Yrotation
                  JOINT LeftHand
                  {
                    OFFSET 24.5451 1.52588e-005 0
                    CHANNELS 3 Zrotation Xrotation Yrotation
                    End Site
                    {
                      OFFSET 0 0 0
                    }
                  }
                }
              }
            }
            JOINT Neck
            {
              OFFSET 5.0226 -0.0266342 0
              CHANNELS 3 Zrotation Xrotation Yrotation
              JOINT Head
              {
                OFFSET 6.69363 2.86102e-005 0
                CHANNELS 3 Zrotation Xrotation Yrotation
                End Site
                {
                  OFFSET 0 0 0
                }
              }
            }
          }
        }
      }
    }
  }
}
MOTION
Frames:	9
Frame Time:	0.0416667
237.079 99.4875 -213.261 95.411 48.38 88.3071 -175.903 0.251707 89.3824 -12.4851 15.9663 3.69432 59.9858 5.16151 10.7934 38.5446 -0.900948 2.24867 176.81 4.2953 90.535 -18.4248 -1.0867 -1.07511 60.0191 1.45687 18.3567 36.7918 -1.19611 -1.96043 0.094338 7.58431 -91.5112 11.6884 -0.521442 -2.95776 0.0142386 -0.651039 -2.93199 -22.4941 0.391179 -2.97778 -2.48143 0.391166 -2.97778 105.802 -37.4346 -75.4502 38.6738 1.98773 -15.3998 -3.21052 -32.8522 -6.29894 6.39679 0.00855799 -4.50104 -62.8676 -62.3352 116.652 -41.4041 -4.26411 -30.1215 6.09966 62.814 -4.3397 -6.69957 0.0305475 -7.57402 99.4308 3.76012 18.5375 -124.419 2.1452 -15.5851 
236.968 99.4983 -213.293 95.2017 48.0836 88.5413 -175.992 -0.0491372 89.3535 -11.6141 15.0831 3.71693 60.0766 5.30541 10.1808 38.2457 -0.877498 2.12617 176.75 4.32863 90.6825 -18.6539 -6.11236 -0.964164 64.1783 -1.50536 12.4501 27.1926 0.561699 -2.81142 0.123629 7.58605 -91.5024 11.7061 -0.458759 -2.94266 0.0319716 -0.587789 -2.91965 -22.4767 0.446422 -2.94455 -2.46408 0.446436 -2.94456 105.914 -37.6689 -75.2671 38.5929 2.14376 -15.3675 -3.62477 -33.3906 -6.82438 7.02114 -0.0223546 -5.01398 -63.0888 -62.2166 116.387 -41.2486 -4.24221 -30.0532 5.96031 63.3334 -3.84425 -6.77873 0.106538 -9.49159 99.4157 3.59313 18.6409 -124.235 1.93611 -15.6826 
236.985 99.5053 -213.287 95.2725 48.1425 88.5025 -175.957 -0.0696339 89.3778 -11.6791 15.2103 3.71847 60.1178 5.33315 10.2617 38.029 -0.862425 2.10572 176.765 4.27369 90.7023 -18.6327 -5.5547 -0.972641 64.1547 -1.38388 12.9078 27.2115 0.512588 -2.35164 0.112708 7.58872 -91.4888 11.6839 -0.47406 -2.91737 0.0098151 -0.601937 -2.89372 -22.4993 0.424241 -2.92503 -2.48665 0.42426 -2.92502 105.933 -37.7391 -75.2381 38.7001 2.18287 -15.3662 -3.53791 -33.141 -6.74993 6.58162 -0.00640056 -4.7642 -63.3444 -61.9634 116.103 -41.2936 -4.1192 -30.0075 6.03077 63.0236 -4.03062 -6.95971 0.104886 -9.24627 99.4227 3.54229 18.5914 -124.295 1.76734 -15.5564 
236.983 99.4993 -213.346 95.3721 48.1123 88.4819 -175.907 -0.0424728 89.4163 -11.8817 15.1507 3.70122 60.1226 5.27744 10.3079 38.226 -0.866435 1.8196 176.793 4.09855 90.7128 -18.4802 -5.95355 -1.01171 64.0574 -1.35031 13.1058 27.7804 0.559376 -3.73043 0.117206 7.58707 -91.4751 11.6842 -0.458763 -2.89219 0.0102049 -0.585557 -2.86924 -22.4994 0.431285 -2.89641 -2.48672 0.431277 -2.89641 105.997 -37.8945 -75.1368 38.4128 1.86032 -15.3498 -3.16855 -32.8139 -6.58962 6.45515 -0.00923386 -4.66808 -63.5411 -61.7495 115.887 -41.3503 -4.13631 -29.8724 6.09713 62.8814 -4.11403 -6.8928 0.0997245 -9.18812 99.1684 3.57023 18.7702 -124.201 1.98508 -15.7958 
236.955 99.4867 -213.393 95.3779 47.946 88.3975 -175.918 -0.124689 89.3207 -11.7545 14.862 3.62818 60.0702 5.21726 10.2007 38.3986 -0.874586 1.70811 176.691 4.22112 90.5809 -18.7089 -5.8698 -0.966617 64.0842 -1.32602 13.0477 27.7489 0.473163 -2.87658 0.140455 7.57674 -91.4361 11.7068 -0.394545 -2.82123 0.032893 -0.518285 -2.80116 -22.478 0.471227 -2.80944 -2.46539 0.47122 -2.80945 106.131 -38.3419 -74.9395 38.1768 2.02821 -15.3888 -3.16246 -33.2702 -6.37504 6.72881 -0.0106222 -4.76849 -64.2654 -61.311 115.015 -41.441 -4.07792 -29.6644 5.81331 62.6624 -3.87349 -6.66448 0.0860103 -9.078 98.8626 3.62576 18.9559 -124.051 2.27948 -16.0706 
236.938 99.4856 -213.41 95.2633 48.0348 88.5309 -175.964 -0.0796166 89.3423 -11.7242 15.0659 3.69364 60.1505 5.31555 10.2501 38.2469 -0.874644 2.03749 176.731 4.26521 90.6292 -18.6651 -5.74602 -0.976716 64.1156 -1.35646 13.0072 27.5343 0.501867 -2.78104 0.137064 7.55512 -91.4104 11.7505 -0.389605 -2.7705 0.0767111 -0.511128 -2.75069 -22.4351 0.460707 -2.75957 -2.42243 0.460709 -2.75958 106.301 -38.6689 -74.6654 38.108 2.01887 -15.3206 -3.35595 -33.4892 -6.60971 6.82568 -0.0117883 -4.85117 -64.9505 -60.8623 114.188 -41.5638 -4.12586 -29.4085 6.088 62.5817 -4.19995 -6.9963 0.0939811 -8.94202 98.5487 3.70143 19.1465 -123.85 2.48731 -16.2925 
236.897 99.4826 -213.415 95.4104 48.2756 88.4863 -176.047 0.165185 89.3152 -12.3471 15.2849 3.80425 60.2428 5.32766 10.3776 38.2053 -0.873182 2.07855 176.587 4.12401 90.5441 -18.5383 -5.09954 -0.842083 63.8974 -1.13444 13.9998 27.7733 0.457733 -2.78028 0.112127 7.54815 -91.3728 11.7646 -0.421825 -2.69227 0.0909965 -0.539862 -2.67113 -22.422 0.40651 -2.69462 -2.40937 0.406504 -2.69463 106.45 -39.1798 -74.4517 37.8115 1.68344 -15.3902 -2.80347 -32.9739 -6.09372 6.30795 -0.0202948 -4.97761 -65.4725 -60.4632 113.563 -41.6274 -4.16786 -29.173 6.17341 62.4704 -4.4203 -6.95612 0.0737024 -8.4833 98.1733 3.58662 19.3407 -123.591 2.87211 -16.7424 
236.604 99.4988 -213.241 96.1415 48.5547 87.8202 -176.202 0.131563 89.1406 -12.7766 15.6203 3.86087 60.0012 5.27884 10.6254 38.4416 -0.891912 2.17296 176.324 4.55522 90.3466 -19.6906 -6.59429 -0.686897 62.5585 -0.9298 12.2387 30.9689 -0.147235 -2.45445 0.0399774 7.61533 -91.2848 11.6306 -0.522475 -2.50604 -0.0425831 -0.632235 -2.48064 -22.5584 0.254584 -2.5472 -2.54574 0.254574 -2.54721 106.626 -39.9506 -74.2211 37.254 1.04979 -15.9284 -2.08615 -32.2682 -5.7211 5.66994 -0.0255562 -5.04163 -66.8687 -59.3459 111.868 -42.3239 -4.02177 -28.7567 7.13863 61.8768 -5.24293 -6.52101 0.0766439 -8.96887 98.0877 2.89097 19.0166 -123.362 2.53851 -16.7034 
236.186 99.514 -213.112 97.106 48.7544 87.228 -176.126 -0.10244 89.1961 -13.1525 15.9151 3.88646 60.1622 5.37429 10.5521 37.7606 -0.846145 2.14884 176.334 4.34233 90.3862 -20.0015 -6.49807 -0.730648 62.0129 -0.773177 11.812 33.1485 -0.551742 -2.1935 -0.0563976 7.69575 -91.1689 11.4702 -0.658319 -2.26154 -0.202503 -0.75718 -2.23041 -22.7219 0.0515834 -2.3548 -2.70921 0.0516008 -2.35479 106.85 -41.3556 -73.984 36.8086 1.43958 -15.6072 -3.63306 -33.7421 -7.66471 7.61712 0.0167322 -4.475 -67.8125 -58.0771 110.774 -42.4317 -3.82274 -28.5975 7.38935 60.7752 -6.05461 -7.10917 0.0453962 -7.65522 97.9348 1.6998 18.1721 -123.154 2.07539 -16.4121 
